# xmcd CD database file
#
# Track frame offsets:
#	150
#	14865
#	29060
#	42480
#	57757
#	72250
#	82547
#	95925
#	108382
#	119222
#	131407
#	144342
#	159297
#	175022
#	185740
#	202142
#	219315
#	233257
#	249937
#	262360
#	273020
#	286415
#	299682
#
# Disc length: 4327 seconds
#
# Revision: 1
# Processed by: cddbd v1.5.2PL0 Copyright (c) Steve Scherf et al.
# Submitted via: CDex 1.51
#
DISCID=6110e517
DTITLE=GENGHIS KHAN - NON-STOP BEST HITS
DYEAR=2001
DGENRE=Dance
TTITLE0=Dschinghis Khan
TTITLE1=Hadschi Halef Omar
TTITLE2=Rocking Son Of Dschinghis Khan
TTITLE3=Der Verrater
TTITLE4=Madagaskar
TTITLE5=Kapt'n Nemo
TTITLE6=Sierra Nevada
TTITLE7=Tiger, Tiger
TTITLE8=Kontiki
TTITLE9=Samurai
TTITLE10=Mann Und Frau
TTITLE11=Kaspar Hauser
TTITLE12=Die Fremden
TTITLE13=Komm Doch Heim
TTITLE14=Israel, Israel
TTITLE15=Rom
TTITLE16=Puszta
TTITLE17=Moskau
TTITLE18=China Boy
TTITLE19=Pass Auf, Der Drache Kommt
TTITLE20=Sahara
TTITLE21=Machu Picchu
TTITLE22=The Story Of Genghis Khan
EXTD=YEAR: 2001
EXTT0=
EXTT1=
EXTT2=
EXTT3=
EXTT4=
EXTT5=
EXTT6=
EXTT7=
EXTT8=
EXTT9=
EXTT10=
EXTT11=
EXTT12=
EXTT13=
EXTT14=
EXTT15=
EXTT16=
EXTT17=
EXTT18=
EXTT19=
EXTT20=
EXTT21=
EXTT22=
PLAYORDER=
